<svg width="48" height="52" viewBox="0 0 48 52" fill="none" xmlns="http://www.w3.org/2000/svg">
<path fill-rule="evenodd" clip-rule="evenodd" d="M23.5603 19.6899C23.5603 17.1317 20.8247 15.504 18.5764 16.7245V16.7245L15.6841 18.2946C14.3951 18.9943 13.5925 20.3433 13.5925 21.81V41.9288C13.5925 47.3735 17.9579 51.7986 23.3796 51.895C27.3667 52.2273 31.4059 51.7703 35.2245 50.5308C39.0341 49.2942 42.4939 47.321 45.3877 44.7627C45.6838 44.501 45.8318 44.3701 46.0863 44.0226C47.1103 42.625 46.9304 40.0994 45.7186 38.8611C45.4173 38.5532 45.1336 38.3666 44.566 37.9934C43.7653 37.4668 43.3649 37.2035 43.0983 37.0796C41.6499 36.4066 40.7803 36.4468 39.4001 37.2505C39.146 37.3984 38.5677 37.8604 37.4112 38.7842C34.1699 41.3735 29.954 42.9383 25.345 42.9383C25.1936 42.9383 25.0426 42.9366 24.8921 42.9333L24.8919 42.9333V42.9333C24.1545 42.9168 23.5603 42.3129 23.5603 41.5753V19.6899Z" fill="#A26A68"/>
<path fill-rule="evenodd" clip-rule="evenodd" d="M9.06167 26.2788C9.06168 16.7701 16.77 9.06169 26.2788 9.06169C31.0351 9.06169 35.341 10.9903 38.4569 14.1083C40.0175 15.6698 42.4539 16.2952 44.3326 15.1357L45.2372 14.5774C47.1171 13.4171 47.7216 10.9275 46.2897 9.24525C43.7124 6.21753 40.4695 3.80027 36.7938 2.19542C31.8902 0.0544433 26.4498 -0.538635 21.2 0.495466C15.9502 1.52957 11.1412 4.14157 7.41583 7.98229C3.69045 11.823 1.22624 16.7094 0.352643 21.9883C-0.520957 27.2671 0.237676 32.6869 2.52713 37.523C4.09309 40.8309 6.32419 43.7579 9.06167 46.1319V26.287C9.06167 26.2843 9.06166 26.2816 9.06166 26.2788C9.06166 26.2788 9.06167 26.2788 9.06167 26.2788Z" fill="#A26A68"/>
</svg>
